<?xml version="1.0" encoding="UTF-8"?>
<svg id="Layer_1" data-name="Layer 1" xmlns="http://www.w3.org/2000/svg" viewBox="0 0 110 135">
  <defs>
    <style>
      .cls-1 {
        fill: none;
        stroke: #eee9d6;
        stroke-miterlimit: 10;
      }
    </style>
  </defs>
  <path class="cls-1" d="M55,39.85l7.55-20.98c.06-.16.29-.12.29.05l.7,22.29,13.67-17.62c.1-.13.31-.03.27.14l-6.22,21.42,18.44-12.54c.14-.09.3.07.21.21l-12.54,18.44,21.42-6.22c.16-.05.27.16.14.27l-17.62,13.67,22.29.7c.17,0,.2.24.05.29l-20.98,7.55,20.98,7.55c.16.06.12.29-.05.29l-22.29.7,17.62,13.67c.13.1.03.31-.14.27l-21.42-6.22,12.54,18.44c.09.14-.07.3-.21.21l-18.44-12.54,6.22,21.42c.05.16-.16.27-.27.14l-13.67-17.62-.7,22.29c0,.17-.24.2-.29.05l-7.55-20.98-7.55,20.98c-.06.16-.29.12-.29-.05l-.7-22.29-13.67,17.62c-.1.13-.31.03-.27-.14l6.22-21.42-18.44,12.54c-.14.09-.3-.07-.21-.21l12.54-18.44-21.42,6.22c-.16.05-.27-.16-.14-.27l17.62-13.67-22.29-.7c-.17,0-.2-.24-.05-.29l20.98-7.55-20.98-7.55c-.16-.06-.12-.29.05-.29l22.29-.7-17.62-13.67c-.13-.1-.03-.31.14-.27l21.42,6.22-12.54-18.44c-.09-.14.07-.3.21-.21l18.44,12.54-6.22-21.42c-.05-.16.16-.27.27-.14l13.67,17.62.7-22.29c0-.17.24-.2.29-.05l7.55,20.98Z"/>
</svg>